<?xml version="1.0" encoding="utf-8"?>
<!-- Generator: Adobe Illustrator 17.1.0, SVG Export Plug-In . SVG Version: 6.00 Build 0)  -->
<!DOCTYPE svg PUBLIC "-//W3C//DTD SVG 1.1//EN" "http://www.w3.org/Graphics/SVG/1.1/DTD/svg11.dtd">
<svg version="1.1" id="Layer_1" xmlns="http://www.w3.org/2000/svg" xmlns:xlink="http://www.w3.org/1999/xlink" x="0px" y="0px"
	 viewBox="0 0 575 438" enable-background="new 0 0 575 438" xml:space="preserve">
<path fill="#FFFFFF" d="M524.1,144.8L415.3,365.5l-298.4-18.9C92.4,345,71,336,70.9,311.3c-0.1-19.1,18.7-34.9,43.1-33.3l282.2,18.6
	L527.3,50.8L267.9,34c-32.4-2.1-63.3,5.3-80.1,28.9L54.3,281.9c-19.5,46.5,10.8,82.1,43.2,84.2l332.1,22.1L545,145L524.1,144.8z
	 M95.4,300.6l313.7,20.6l105.1-201.4l7.2,0.3L409.9,342.7L96.7,321.5L95.4,300.6z"/>
</svg>
