<?xml version="1.0" encoding="utf-8"?>
<!-- Generator: Adobe Illustrator 17.1.0, SVG Export Plug-In . SVG Version: 6.00 Build 0)  -->
<!DOCTYPE svg PUBLIC "-//W3C//DTD SVG 1.1//EN" "http://www.w3.org/Graphics/SVG/1.1/DTD/svg11.dtd">
<svg version="1.1" xmlns="http://www.w3.org/2000/svg" xmlns:xlink="http://www.w3.org/1999/xlink" x="0px" y="0px"
	 viewBox="163 105 294 166" enable-background="new 163 105 294 166" xml:space="preserve">
<g id="Layer_2">
</g>
<g id="Layer_1">
	<path fill="#FFFFFF" d="M191,241.2c0,2.2-1.8,3.9-3.9,3.9H180c-2.2,0-3.9-1.8-3.9-3.9v-37c0-2.2,1.8-3.9,3.9-3.9h7.1
		c2.2,0,3.9,1.8,3.9,3.9V241.2z"/>
	<path fill="#FFFFFF" d="M328.7,241.2c0,2.2-1.8,3.9-3.9,3.9h-7.1c-2.2,0-3.9-1.8-3.9-3.9v-37c0-2.2,1.8-3.9,3.9-3.9h7.1
		c2.2,0,3.9,1.8,3.9,3.9V241.2z"/>
	<path fill="#FFFFFF" d="M328,224.6c0-2.2-1.8-3.9-3.9-3.9H180.7c-2.2,0-3.9,1.8-3.9,3.9v17.7c0,2.2,1.8,3.9,3.9,3.9H324
		c2.2,0,3.9-1.8,3.9-3.9V224.6z"/>
	<path fill="#FFFFFF" d="M316.5,185.4c0-2.2-1.8-3.9-3.9-3.9H191.1c-2.2,0-3.9,1.8-3.9,3.9V214c0,2.2,1.8,3.9,3.9,3.9h121.4
		c2.2,0,3.9-1.8,3.9-3.9L316.5,185.4L316.5,185.4z"/>
	<path fill="#FFFFFF" d="M185.9,235.2c0-1-1.1-1.8-2.6-1.8l0,0c-1.4,0-2.6,0.8-2.6,1.8v21.9c0,1,1.1,1.8,2.6,1.8l0,0
		c1.4,0,2.6-0.8,2.6-1.8V235.2z"/>
	<path fill="#FFFFFF" d="M322.2,235.2c0-1-1.1-1.8-2.6-1.8l0,0c-1.4,0-2.6,0.8-2.6,1.8v21.9c0,1,1.1,1.8,2.6,1.8l0,0
		c1.4,0,2.6-0.8,2.6-1.8V235.2z"/>
	<path fill="#FFFFFF" d="M364.1,241.2c0,2.2-1.8,3.9-3.9,3.9h-7.1c-2.2,0-3.9-1.8-3.9-3.9v-37c0-2.2,1.8-3.9,3.9-3.9h7.1
		c2.2,0,3.9,1.8,3.9,3.9V241.2z"/>
	<path fill="#FFFFFF" d="M443.7,241.2c0,2.2-1.8,3.9-3.9,3.9h-7.1c-2.2,0-3.9-1.8-3.9-3.9v-37c0-2.2,1.8-3.9,3.9-3.9h7.1
		c2.2,0,3.9,1.8,3.9,3.9V241.2z"/>
	<path fill="#FFFFFF" d="M443,224.6c0-2.2-1.8-3.9-3.9-3.9h-85.2c-2.2,0-3.9,1.8-3.9,3.9v17.7c0,2.2,1.8,3.9,3.9,3.9H439
		c2.2,0,3.9-1.8,3.9-3.9V224.6z"/>
	<path fill="#FFFFFF" d="M431.5,185.4c0-2.2-1.8-3.9-3.9-3.9h-63.3c-2.2,0-3.9,1.8-3.9,3.9V214c0,2.2,1.8,3.9,3.9,3.9h63.3
		c2.2,0,3.9-1.8,3.9-3.9L431.5,185.4L431.5,185.4z"/>
	<path fill="#FFFFFF" d="M360.3,235.2c0-1-1.1-1.8-2.6-1.8l0,0c-1.4,0-2.6,0.8-2.6,1.8v21.9c0,1,1.1,1.8,2.6,1.8l0,0
		c1.4,0,2.6-0.8,2.6-1.8V235.2z"/>
	<path fill="#FFFFFF" d="M438.3,235.2c0-1-1.1-1.8-2.6-1.8l0,0c-1.4,0-2.6,0.8-2.6,1.8v21.9c0,1,1.1,1.8,2.6,1.8l0,0
		c1.4,0,2.6-0.8,2.6-1.8V235.2z"/>
	<polygon fill="#FFFFFF" points="358.3,135.5 318.1,135.5 331.3,112.5 345.1,112.5 	"/>
	<polygon fill="#FFFFFF" points="349.4,251 327.1,251 335.9,245.7 340.6,245.7 	"/>
	<rect x="337.1" y="135.5" fill="#FFFFFF" width="2.2" height="116.5"/>
</g>
</svg>
