<?xml version="1.0" encoding="utf-8"?>
<!-- Generator: Adobe Illustrator 17.1.0, SVG Export Plug-In . SVG Version: 6.00 Build 0)  -->
<!DOCTYPE svg PUBLIC "-//W3C//DTD SVG 1.1//EN" "http://www.w3.org/Graphics/SVG/1.1/DTD/svg11.dtd">
<svg version="1.1" id="Layer_1" xmlns="http://www.w3.org/2000/svg" xmlns:xlink="http://www.w3.org/1999/xlink" x="0px" y="0px"
	 viewBox="188.9 456 411 24.3" enable-background="new 188.9 456 411 24.3" xml:space="preserve">
<path fill="#9F70FC" d="M587.1,456.3c-5.5,0-10.1,3.8-11.3,8.9c-35-1.2-133.8-4.5-136.2-4.7c-3-0.2-20.9-2.5-27-3.2
	s-12.1-1.1-18.2-1.1c-6.1,0-12.1,0.4-18.2,1.1c-6,0.8-24,3-27,3.3c-2.4,0.2-101.3,3.6-136.2,4.9c-1.3-5.1-5.9-8.8-11.4-8.8
	c-6.5,0-11.7,5.3-11.7,11.8c0,6.5,5.3,11.7,11.8,11.7c5.5,0,10.1-3.8,11.3-8.9c34.9,1.2,133.8,4.6,136.2,4.7c3,0.2,20.9,2.4,27,3.2
	c6.1,0.7,12.1,1.1,18.2,1.1s12.1-0.4,18.2-1.1c6-0.8,24-3.1,27-3.3c2.4-0.2,101.2-3.6,136.2-4.9c1.3,5.1,5.9,8.8,11.4,8.8
	c6.5,0,11.7-5.3,11.7-11.8C598.8,461.6,593.5,456.3,587.1,456.3z"/>
</svg>
