<?xml version="1.0" encoding="utf-8"?>
<!-- Generator: Adobe Illustrator 17.1.0, SVG Export Plug-In . SVG Version: 6.00 Build 0)  -->
<!DOCTYPE svg PUBLIC "-//W3C//DTD SVG 1.1//EN" "http://www.w3.org/Graphics/SVG/1.1/DTD/svg11.dtd">
<svg version="1.1" id="Layer_2" xmlns="http://www.w3.org/2000/svg" xmlns:xlink="http://www.w3.org/1999/xlink" x="0px" y="0px"
	 viewBox="214.6 21.6 198.7 249" enable-background="new 214.6 21.6 198.7 249" xml:space="preserve">
<path fill="#FFFFFF" d="M398.6,72.2c0-8.4-6.8-15.2-15.2-15.2H244.7c-8.3,0-15,6.7-15,15v167.6c0,6.7,5.4,12,12,12h145
	c6.7,0,12.2-5.5,12.2-12.2L398.6,72.2 M386.5,226.6H241.8V87.1h144.8L386.5,226.6L386.5,226.6z M253.8,111.9V99.9h73.5v12.1
	 M245.2,76.9V57h139.4v20 M326.2,147.4h48.3v12.1h-48.3V147.4z M300.2,196h36.2v12.1h-36.2V196z M348.8,196h26.4v12.1h-26.4V196z
	 M337.5,100.2h36.2v12.1h-36.2V100.2z M253.8,172.3h73.5v12.1h-73.5V172.3z M337.5,172.6h36.2v12.1h-36.2V172.6z M373.7,136.1h-73.5
	V124h73.5V136.1z M290,135.7h-36.2v-12.1H290V135.7z M254.2,147.4h59.6v12.1h-59.6V147.4z M254.2,195.6h36.6v12.1h-36.6L254.2,195.6
	L254.2,195.6z"/>
<g>
	<path fill="#FFFFFF" d="M371.7,48.1h-34.5c-1.8,0-3.2-1.4-3.2-3.2v-0.2c0-8.3-6.8-15.1-15.1-15.1h-8.3c-8.3,0-15,6.8-15,15v0.2
		c0,1.8-1.4,3.2-3.2,3.2h-34.5c-4.8,0-8.8,3.9-8.8,8.8V71h131.4V56.9C380.4,52.1,376.5,48.1,371.7,48.1z M315.5,45.4
		c-3.4,0.5-6.4-2.4-5.8-5.8c0.3-2.1,2.1-3.9,4.2-4.2c3.4-0.5,6.4,2.4,5.8,5.8C319.4,43.3,317.7,45,315.5,45.4z"/>
</g>
</svg>
