<?xml version="1.0" encoding="utf-8"?>
<!-- Generator: Adobe Illustrator 17.1.0, SVG Export Plug-In . SVG Version: 6.00 Build 0)  -->
<!DOCTYPE svg PUBLIC "-//W3C//DTD SVG 1.1//EN" "http://www.w3.org/Graphics/SVG/1.1/DTD/svg11.dtd">
<svg version="1.1" id="Layer_2" xmlns="http://www.w3.org/2000/svg" xmlns:xlink="http://www.w3.org/1999/xlink" x="0px" y="0px"
	 viewBox="214.6 21.6 265.5 199.5" enable-background="new 214.6 21.6 265.5 199.5" xml:space="preserve">
<path fill="#FFFFFF" d="M377.7,94.6c0.8,5.2,1.5,10.4,2.3,15.6c2.5,14.7,2,29.5,1,44.4c-0.5,8-0.5,8.3,1,8.3
	c47.4,4.2,44.9,13.9,64.3,18.2c16.7,3.7,19.2,10.4,19.2,11.8c-75,0-148.5,0-222,0c-0.2-0.7,6.3-4.6,24.4-8.9
	c18.1-4.3,39.3-18.5,99.3-21.5c0.8,0,1-2.2,1.3-3.5c4.7-18.4,5.6-44.1,2.7-64.4C370.4,86.8,377.3,92.2,377.7,94.6z"/>
<path fill="#FFFFFF" d="M409.7,86.6c2.9,2.5,6.2,3.8,9.6,5.4c-7.4-7.4-21.3-13-32-13.6c0,0-0.4-0.6,3.3-0.8
	c-1.8-1.4-5.1-0.9-6.9-2.1c3.3-0.6,6.7-0.7,10-1.4c-1.4-1.4-4.9-1.1-6.7-2c3-0.7,6.2-0.5,9.3-1.2c-1.4-1.5-5-0.8-6.3-2.2
	c2.8-1.1,6.1-0.2,8.9-0.8c-1.5-0.9-5-1.2-6-2.4c2.9-1.1,6.4-0.2,9.3-1c-0.9-0.3-5.4-1.9-5.8-2.6c3.5-0.2,6.7-1.1,10.1-1.9
	c-13.9-2.2-29.8,5.8-33.7,17.8c0,0,0,0,0,0c-4.7-13.1-21.4-19.9-36-17.8c3.7,0.9,7.4,1.7,11.2,2.2c-1.6,1-4.4,1.9-6.3,2.4
	c3.2,0.6,7.1,0.2,10.2,1.5c-1.9,1-4.7,0.8-6.5,2.1c3.2,0.7,6.5,0.9,9.7,1.4c-1.9,1.1-4.6,0.9-6.6,2c3.3,0.8,6.7,1,10,1.7
	c-2.1,0.9-4.9,0.6-7,1.8c3.5,0.8,7.1,1.1,10.6,1.9c-0.2,0.2-0.5,0.3-0.7,0.4c-10.3-1-23,8.6-32.4,16.7c3.3-1.8,6.7-2.9,9.4-5.9
	c-0.1,1.9-1.6,4.7-2.5,6.4c2.7-2.4,5.2-5.1,8-7.4c-0.2,2.3-1.9,4.4-2.2,6.6c2.5-2.4,4.6-5.2,7-7.5c-0.1,2.2-1.8,4.5-2,6.7
	c2.5-2.3,4.6-5.1,7.1-7.5c-0.5,2.3-2,4.4-2.3,6.7c2.7-2.2,4.8-5.2,7.5-7.4c-0.3,2.2-2.6,4.4-2.7,6.7c2.1-3,5.5-4.9,8.3-7.2
	c0.2,0.4-1.1,2.3-2.3,4c-10.1,3.5-16.8,18.6-20.8,31c2-3.2,4.3-5.9,5.1-9.8c0.8,1.7,1,4.9,1.1,6.7c1.2-3.4,1.9-7,3.2-10.3
	c1,2,0.5,4.8,1.4,6.9c0.9-3.3,1.4-6.7,2.4-10c1,2,0.6,4.8,1.5,6.8c1-3.3,1.4-6.7,2.4-10c0.9,2.1,0.5,4.8,1.3,7
	c1.2-3.3,1.7-6.8,2.8-10.2c0.9,2.1,0,5,1,7.2c0.4-3.6,2.2-7.1,3.6-10.4c0.6,0.4-0.3,6.6,0,7.7c2.9-5.3,2.7-6.9,6-8.9
	c5.7,2.4,4,4.2,7.8,9.9c0,0.2,0-7.7,0-7.7c1.3,3.3,3.3,6.8,3.4,10.4c1.1-2.1,0.2-5.1,1.2-7.1c1.2,3.5,1.8,7.1,3,10.6
	c0.7-2.3,0.3-5,1.1-7.2c1.5,3.4,2.2,7.2,3.7,10.6c0.3-2-0.5-5.4,0.4-7.3c1.8,3.3,3.1,6.8,5.1,10.1c-0.1-2.3-1.6-4.9-1-7.3
	c2.1,3.5,4.3,5.9,7.3,8.7c-0.9-1.5-2.7-4.7-2.3-6.5c2.6,3.5,5.8,3.8,9.3,5.5c-8.6-6.5-15.3-17.6-22.5-23.6c1.3,0.8,2.6,1.5,3.8,2
	c-0.7-2.2-3.3-3.8-4-6c2.9,1.7,5.6,4.1,8.5,5.7c-0.8-2.2-2.6-4-3.5-6.1c2.8,1.7,5.2,4.1,7.9,6c-0.5-2.2-2.4-4-3-6.2
	c2.6,2,5.1,4.2,7.7,6.2c-0.5-2.1-2.7-4.2-2.9-6.2c3,1.6,5.6,4.3,8.3,6.2C411.6,91.1,410,88.4,409.7,86.6z"/>
</svg>
