<?xml version="1.0" encoding="utf-8"?>
<!-- Generator: Adobe Illustrator 15.0.0, SVG Export Plug-In . SVG Version: 6.00 Build 0)  -->
<!DOCTYPE svg PUBLIC "-//W3C//DTD SVG 1.1//EN" "http://www.w3.org/Graphics/SVG/1.1/DTD/svg11.dtd">
<svg version="1.1" id="Layer_1" xmlns="http://www.w3.org/2000/svg" xmlns:xlink="http://www.w3.org/1999/xlink" x="0px" y="0px"
	 width="612px" height="792px" viewBox="0 0 612 792" enable-background="new 0 0 612 792" xml:space="preserve">
<path fill="#FFFFFF" d="M191.007,241.168c0,2.179-1.767,3.944-3.945,3.944h-7.085c-2.18,0-3.945-1.765-3.945-3.944v-37.04
	c0-2.179,1.765-3.946,3.945-3.946h7.085c2.179,0,3.945,1.767,3.945,3.946V241.168z"/>
<path fill="#FFFFFF" d="M328.718,241.168c0,2.179-1.766,3.944-3.945,3.944h-7.085c-2.18,0-3.945-1.765-3.945-3.944v-37.04
	c0-2.179,1.766-3.946,3.945-3.946h7.085c2.18,0,3.945,1.767,3.945,3.946V241.168z"/>
<path fill="#FFFFFF" d="M327.987,224.584c0-2.179-1.765-3.944-3.944-3.944H180.705c-2.179,0-3.944,1.767-3.944,3.944v17.68
	c0,2.179,1.765,3.944,3.944,3.944h143.338c2.18,0,3.944-1.767,3.944-3.944V224.584z"/>
<path fill="#FFFFFF" d="M316.48,185.4c0-2.179-1.766-3.944-3.944-3.944H191.133c-2.179,0-3.944,1.766-3.944,3.944v28.646
	c0,2.179,1.765,3.945,3.944,3.945h121.404c2.179,0,3.944-1.767,3.944-3.945L316.48,185.4L316.48,185.4z"/>
<path fill="#FFFFFF" d="M185.923,235.247c0-1.008-1.147-1.825-2.564-1.825l0,0c-1.415,0-2.563,0.817-2.563,1.825v21.917
	c0,1.009,1.148,1.827,2.563,1.827l0,0c1.417,0,2.564-0.817,2.564-1.827V235.247z"/>
<path fill="#FFFFFF" d="M322.2,235.247c0-1.008-1.146-1.825-2.564-1.825l0,0c-1.414,0-2.564,0.817-2.564,1.825v21.917
	c0,1.009,1.149,1.827,2.564,1.827l0,0c1.417,0,2.564-0.817,2.564-1.827V235.247z"/>
<path fill="#FFFFFF" d="M364.134,241.168c0,2.179-1.767,3.944-3.945,3.944h-7.086c-2.18,0-3.944-1.765-3.944-3.944v-37.04
	c0-2.179,1.765-3.946,3.944-3.946h7.086c2.179,0,3.945,1.767,3.945,3.946V241.168z"/>
<path fill="#FFFFFF" d="M443.719,241.168c0,2.179-1.767,3.944-3.945,3.944h-7.086c-2.18,0-3.944-1.765-3.944-3.944v-37.04
	c0-2.179,1.765-3.946,3.944-3.946h7.086c2.179,0,3.945,1.767,3.945,3.946V241.168z"/>
<path fill="#FFFFFF" d="M442.988,224.584c0-2.179-1.767-3.944-3.945-3.944h-85.212c-2.18,0-3.944,1.767-3.944,3.944v17.68
	c0,2.179,1.765,3.944,3.944,3.944h85.212c2.179,0,3.945-1.767,3.945-3.944V224.584z"/>
<path fill="#FFFFFF" d="M431.481,185.4c0-2.179-1.767-3.944-3.945-3.944h-63.278c-2.179,0-3.944,1.766-3.944,3.944v28.646
	c0,2.179,1.766,3.945,3.944,3.945h63.278c2.179,0,3.945-1.767,3.945-3.945V185.4z"/>
<path fill="#FFFFFF" d="M360.262,235.247c0-1.008-1.148-1.825-2.563-1.825l0,0c-1.416,0-2.565,0.817-2.565,1.825v21.917
	c0,1.009,1.148,1.827,2.565,1.827l0,0c1.414,0,2.563-0.817,2.563-1.827V235.247z"/>
<path fill="#FFFFFF" d="M438.27,235.247c0-1.008-1.146-1.825-2.564-1.825l0,0c-1.414,0-2.562,0.817-2.562,1.825v21.917
	c0,1.009,1.147,1.827,2.562,1.827l0,0c1.417,0,2.564-0.817,2.564-1.827V235.247z"/>
<polygon fill="#FFFFFF" points="358.307,135.529 318.129,135.529 331.291,112.516 345.146,112.516 "/>
<polygon fill="#FFFFFF" points="349.369,250.996 327.069,250.996 335.886,245.662 340.551,245.661 "/>
<rect x="337.122" y="135.529" fill="#FFFFFF" width="2.191" height="116.525"/>
</svg>
