<?xml version="1.0" encoding="utf-8"?>
<!-- Generator: Adobe Illustrator 17.1.0, SVG Export Plug-In . SVG Version: 6.00 Build 0)  -->
<!DOCTYPE svg PUBLIC "-//W3C//DTD SVG 1.1//EN" "http://www.w3.org/Graphics/SVG/1.1/DTD/svg11.dtd">
<svg version="1.1" id="Layer_1" xmlns="http://www.w3.org/2000/svg" xmlns:xlink="http://www.w3.org/1999/xlink" x="0px" y="0px"
	 viewBox="0 0 275 454.7" enable-background="new 0 0 275 454.7" xml:space="preserve">
<path fill="#9F70FC" d="M144.4,13.2c0,3.5-2.8,6.3-6.3,6.3s-6.3-2.8-6.3-6.3s2.8-6.3,6.3-6.3S144.4,9.7,144.4,13.2z M214.5,426.5
	c-16.2-3-30.4-5.1-43.8-15.5c-13-6.7-15.8-33.4-15.8-33.4S141,42.1,140.4,25.4c5.7-1,10.1-6.1,10.1-12.1C150.5,6.5,145,1,138.2,1
	s-12.3,5.5-12.3,12.3c0,6,4.3,11,10,12.1c-0.8,16.7-15.4,352.2-15.4,352.2s0.5,27.7-20.8,36.6c-13.3,8.5-27.4,9.7-42.6,12.8
	C40.2,430.5,8.5,437.2,1,454.5c136.5,0.2,136.5,0.2,273,0C266.3,436.4,232.5,429.6,214.5,426.5z"/>
</svg>
