<?xml version="1.0" encoding="utf-8"?>
<!-- Generator: Adobe Illustrator 17.1.0, SVG Export Plug-In . SVG Version: 6.00 Build 0)  -->
<!DOCTYPE svg PUBLIC "-//W3C//DTD SVG 1.1//EN" "http://www.w3.org/Graphics/SVG/1.1/DTD/svg11.dtd">
<svg version="1.1" id="Layer_1" xmlns="http://www.w3.org/2000/svg" xmlns:xlink="http://www.w3.org/1999/xlink" x="0px" y="0px"
	 viewBox="0 0 792 612" enable-background="new 0 0 792 612" xml:space="preserve">
<path fill="#A0F0FD" d="M358.5,385.8c0-15.3-0.3-30.7,0.1-46c0.6-22.1,7.8-41.5,26.1-55.2c10.4-7.8,21.2-14.9,31.9-22.3
	c9.3-6.5,18.8-12.6,27.9-19.3c19.4-14.5,26.8-40.3,18.6-63c-5-13.6-15.2-22.2-27.8-27.8c-31.5-14-61.9-12.1-90,8.3
	c-13.1,9.5-19.4,23.8-21.3,39.4c-1.8,14.8-1.8,29.8-2.2,44.8c-0.1,4.5-1.3,6.1-6,6.1c-24-0.2-48-0.1-72-0.1c-2.8,0-5.3,0.2-5.3-3.9
	c-0.1-26.2,1-52.2,8.1-77.6c5.8-20.9,17-38.8,30.9-55.3c11.1-13,23.5-24.5,38.4-33.1c17.5-10.1,36.3-16.2,56.5-18.4
	c28-3.1,55.7-1.7,82,8.4c49.2,19,83.7,52.8,96.6,105c9.1,37.1,2.7,72-21,102.9c-11.8,15.4-27.1,26.8-43.3,37.2
	c-8,5.1-16,10.1-23.5,15.9c-14,10.8-21.5,25-21.4,42.9c0.1,19-0.1,38,0.1,57c0.1,5-1.6,6.1-6.3,6.1c-18.8-0.2-37.7,0-56.5,0.1
	c-4.5,0-8.9,0.7-13.4,0.8c-7,0.1-7,0-7-6.7C358.5,416.4,358.5,401.1,358.5,385.8z"/>
<path fill="#A0F0FD" d="M358.4,513.4c0-12.3,0.1-24.7-0.1-37c-0.1-3.9,1.2-5.2,5.1-5.2c24.3,0.1,48.7,0.1,73,0
	c4.1,0,5.6,1.2,5.6,5.4c-0.1,24.8-0.1,49.7,0,74.5c0,4.1-1.4,5.5-5.5,5.5c-24.3-0.2-48.7-0.1-73,0c-3.9,0-5.2-1.2-5.2-5.2
	C358.6,538.8,358.4,526.1,358.4,513.4z"/>
</svg>
