<?xml version="1.0" encoding="utf-8"?>
<!-- Generator: Adobe Illustrator 17.1.0, SVG Export Plug-In . SVG Version: 6.00 Build 0)  -->
<!DOCTYPE svg PUBLIC "-//W3C//DTD SVG 1.1//EN" "http://www.w3.org/Graphics/SVG/1.1/DTD/svg11.dtd">
<svg version="1.1" xmlns="http://www.w3.org/2000/svg" xmlns:xlink="http://www.w3.org/1999/xlink" x="0px" y="0px"
	 viewBox="0 0 792 612" enable-background="new 0 0 792 612" xml:space="preserve">
<g id="Layer_1">
	<path fill="#FFFFFF" d="M617.7,431.7c1.9-12.5,2.2-24.6,2.3-36.7c0.1-13.5,0.1-27.1-0.1-40.6c-0.3-16.1-0.7-32.2-1.5-48.2
		c-0.5-10.3-8.2-17.1-18.5-17.1c-2.8,0-6,0.8-8.3-0.2c-2.2-1-3.3-4.2-5-6.3c-10.1-12.4-23.2-17.3-38.6-13.6
		c-15.3,3.6-24.9,13.8-28.2,29.3c-2.3,10.8,0.2,20.6,6.5,29.7c0.5,0.8,0.8,2,0.6,2.9c-0.7,3.5-1.8,7-2.5,10.5
		c-0.3,1.3-0.8,1.8-2.2,1.8c-6.9,0.1-13.3,1.8-18.9,6.1c-5.5,4.2-9.1,9.9-12.1,16c-5.3,11.1-10.7,22.2-16.1,33.3
		c-0.4,0.7-1.3,1.4-2.1,1.6c-12.3,2.8-24.6,5.5-36.9,8.2c-7.6,1.6-11.9,6.5-12.7,15c-0.2,2.3-1,2.9-3.2,2.8c-3.7-0.2-7.3,0-11.4,0
		c0-3.3-3.5-304.3-3.6-314.6c0-0.6,0.1-1.1,0.1-1.9c88.4-8.5,176.7-17.1,265.6-25.6c0,4.5,3.9,338.5,4,346.8c0,0.8,0,1.6,0,2.7
		C655.6,432.8,636.7,432.3,617.7,431.7z"/>
	<path fill="#FFFFFF" d="M184.2,423.7l55.7,1.5l-0.8-4.3c0,0-46.5-1.3-54.8-1.6c-0.1-1.1-3.4-273.1-3.6-285c0-0.9-0.1-1.9-0.2-3.1
		c73.3-7.1,146.5-14.1,220.1-21.2c0,1.2,0,2.2,0,3.3c0,6.2,3.5,297.5,3.6,309.4c0,0.9,0.1,1.7,0.2,2.9c-39.8-1.1-79.6-2.3-120-3.4
		c1.5,2.6,2.6,4.8,3.9,6.9c0.2,0.4,1.3,0.4,1.9,0.3c5-1,10-2.2,15-3.2c0.7-0.2,1.5-0.3,2.2-0.2c9.1,0.8,18.3,1.6,27.4,2.3
		c9.4,0.8,339.7,9.1,339.7,9.1l-57.2,31c0,0-486-21.8-548-24.7C69.5,443.5,184.2,423.7,184.2,423.7z M206.7,262.5
		c0.4,41,0.8,81.8,1.2,122.7c11.5,1.1,22.7,2.2,34.1,3.4c0.9-2.2,1.6-4.4,2.5-6.4c6.3-14.6,15.6-26.7,29.6-34.8
		c0.9-0.5,2.7-1.3,2.7-1.3l27.6,0.9c0,0-11.1,11.3-14.5,18.5c-3.9,8.2-6,18-7,27.2c34.5,3.4,68.8,6.8,103.2,10.2
		c-0.1-1.7-0.3-3.1-0.3-4.5c-0.2-22.3-0.3-44.5-0.4-66.8c-0.1-9.9,0-19.7-0.1-29.6c-0.1-16.8-0.2-33.7-0.3-50.5c0-1.6,0-3.2,0-4.9
		C325.2,252,266,257.2,206.7,262.5z M296.8,348.8c-6.7-0.3-13.2-0.5-19.6-0.7c-0.7,0-1.5,0.5-2.2,0.9c-6.1,3.4-10.9,8.1-15,13.7
		c-8.1,11.2-14,23.6-16.9,37c-1.5,6.9-0.9,14.1,0.2,21.1c2.6,15.6,14,23.5,28.7,25c14.1,1.5,28.4,1.4,42.7,2c0.5,0,1-0.2,1.6-0.3
		c0-0.2,0-0.5,0.1-0.7c-0.9-0.1-1.8-0.4-2.7-0.4c-8.4-0.6-16.4-2.5-23.4-7.5c-11.2-8-14.5-17-14.9-32.5
		c-0.4-15.5,3.9-39.8,17.9-53.8C294.3,351.2,295.4,350.1,296.8,348.8z M290.8,432.3c6.4,6,13.3,10,21.5,11.1c7.1,1,14.3,1.4,21.5,2
		c10.4,1,20.9,1.9,31.3,2.9c9.1,0.8,18.3,1.8,27.4,2.5c3.8,0.3,7.8,0.7,11.6,0.1c6.8-1.2,13.5-3.1,20.3-4.8c4-1,8.1-2,12.1-3
		c-0.9-3.6-1.1-3.7-4.8-4c-6.1-0.5-12.3-1-18.4-1.5c-11.2-1-22.4-2-33.6-2.9c-9.4-0.8-18.9-1.5-28.3-2.3
		c-12.9-1.1-25.7-2.3-38.6-3.4c-2.3-0.2-4.6-0.7-6.8-0.3C301.1,429.6,296.2,431,290.8,432.3z"/>
	<path fill="#FFFFFF" d="M428.1,426.2c0.2-1.5,0.4-3,0.7-4.4c0.7-4.3,3.8-7.2,8.1-8.2c13.3-2.9,26.6-5.9,39.9-8.9
		c0.7-0.2,1.5-0.8,1.9-1.5c5.7-11.5,11.3-23,16.8-34.6c2.4-5.1,5.1-9.9,9.4-13.7c5.4-5,12-6.7,19.1-6.3c16.8,0.8,33.6,1.9,50.4,2.9
		c5.1,0.3,10.3,0.4,15.3,1.3c9.3,1.7,15.7,9.6,16.1,19.2c0.6,16.7,1.2,33.5,1.8,50.2c0,1.4-0.1,2.9-0.4,4.4c-1,4.4-1.7,4.9-6.1,4.9
		c-6.5,0-13.1,0-19.9,0c0-1.4,0-2.2,0-2.9c0-12.7,0-25.4,0-38.2c0-1.7-0.3-3.1-2.3-3.5c-1.8-0.3-3,1-3,3.3c0,9.5,0,19,0,28.5
		c0,3.9,0,7.8,0,12.1c-27.2-0.8-54.3-1.5-81.4-2.3c5.2-1.4,8.1-4.8,10-9.7c4.3-10.8,8.9-21.5,13.4-32.3c0.7-1.6,0.9-3-0.8-4.1
		c-1.7-1.1-3.2-0.3-4.2,2.1c-3.2,7.6-6.3,15.2-9.4,22.7c-1.6,3.8-3.2,7.5-4.7,11.4c-0.8,2.1-2.2,3.5-4.2,3.9
		c-8.2,1.9-16.4,4-24.7,5.2c-5,0.7-10.3-0.1-15.4-0.3c-8.2-0.3-16.4-0.5-24.7-0.8C429.2,426.3,428.7,426.2,428.1,426.2z"/>
	<path fill="#FFFFFF" d="M589.1,305.7c0,17.8-14.6,32.3-32.4,32.3c-17.8,0-32.5-14.8-32.5-32.6c0-17.9,14.8-32.3,32.9-32.3
		C574.7,273.2,589.1,287.9,589.1,305.7z"/>
</g>
<g id="Layer_3">
</g>
</svg>
