<?xml version="1.0" encoding="utf-8"?>
<!-- Generator: Adobe Illustrator 17.1.0, SVG Export Plug-In . SVG Version: 6.00 Build 0)  -->
<!DOCTYPE svg PUBLIC "-//W3C//DTD SVG 1.1//EN" "http://www.w3.org/Graphics/SVG/1.1/DTD/svg11.dtd">
<svg version="1.1" id="Layer_3" xmlns="http://www.w3.org/2000/svg" xmlns:xlink="http://www.w3.org/1999/xlink" x="225px" y="165px"
	 viewBox="10.7 7.3 456.4 332.2" enable-background="new 10.7 7.3 456.4 332.2" xml:space="preserve">
<circle fill="none" stroke="#FFFFFF" stroke-width="13.0803" stroke-miterlimit="10" cx="135" cy="299.2" r="33.8"/>
<circle fill="none" stroke="#FFFFFF" stroke-width="13.0803" stroke-miterlimit="10" cx="426.7" cy="299.2" r="33.8"/>
<path fill="#FFFFFF" d="M372,315.5c0,10.1-10.6,18-24.2,18H215.1c-13.3,0-24.2-8.2-24.2-18v-33c0-10.1,10.6-18,24.2-18H348
	c13.3,0,24.2,8.2,24.2,18L372,315.5L372,315.5z"/>
<path fill="#FFFFFF" d="M324.6,249c0,2.5-5.4,4.6-12.5,4.6h-67.6c-6.8,0-12.5-2.2-12.5-4.6v-8.4c0-2.5,5.4-4.6,12.5-4.6h68.1
	c6.8,0,12.5,2.2,12.5,4.6L324.6,249L324.6,249z"/>
<path fill="#FFFFFF" d="M197.6,224.8c5.2,6.8,5.2,15.5,0,19.9l0,0c-5.2,4.1-13.9,1.9-19.1-4.9L14.6,29.2c-5.2-6.8-5.2-15.8,0-19.9
	l0,0c5.2-4.1,13.9-1.9,19.1,4.9L197.6,224.8z"/>
<path fill="#FFFFFF" d="M204.4,175.2c0-8.4,6.8-15.3,15.3-15.3l119,21c8.4,0,15.3,6.8,15.3,15.3V209c0,8.4-6.8,15.3-15.3,15.3h-119
	c-8.4,0-15.3-6.8-15.3-15.3V175.2L204.4,175.2z"/>
</svg>
