<?xml version="1.0" encoding="utf-8"?>
<!-- Generator: Adobe Illustrator 17.1.0, SVG Export Plug-In . SVG Version: 6.00 Build 0)  -->
<!DOCTYPE svg PUBLIC "-//W3C//DTD SVG 1.1//EN" "http://www.w3.org/Graphics/SVG/1.1/DTD/svg11.dtd">
<svg version="1.1" id="Layer_2" xmlns="http://www.w3.org/2000/svg" xmlns:xlink="http://www.w3.org/1999/xlink" x="0px" y="0px"
	 viewBox="0 0 330 259.5" enable-background="new 0 0 330 259.5" xml:space="preserve">
<circle fill="#FFFFFF" cx="83.6" cy="71.7" r="35.8"/>
<circle fill="#FFFFFF" cx="225.1" cy="57.4" r="39.1"/>
<path fill="#FFFFFF" d="M76.6,239.5L40.8,227c-7.7-2.7-13.2-9.6-14.1-17.7l-9.8-88.2C15.2,105.7,30.3,93.7,45,98.8l56.3,19.5
	c9.5,3.3,15.4,12.8,14.1,22.8l-10.7,81.1C102.8,235.5,89.3,243.9,76.6,239.5z"/>
<path fill="#FFFFFF" d="M109.5,201.9l-20.6-55.3c-2.8-7.6,1-16.1,8.6-18.9l0.3-0.1c7.6-2.8,16.1,1,18.9,8.6l20.6,55.3
	c2.8,7.6-1,16.1-8.6,18.9l-0.3,0.1C120.8,213.4,112.3,209.6,109.5,201.9z"/>
<path fill="#FFFFFF" d="M118,192.3l41-29.2c5.6-4,13.2-3.1,16.8,2l0.1,0.2c3.6,5.1,2,12.5-3.6,16.5l-41,29.2c-5.6,4-13.2,3.1-16.8-2
	l-0.1-0.2C110.7,203.7,112.4,196.3,118,192.3z"/>
<path fill="#FFFFFF" d="M277.8,223.5l30-22.6c6.5-4.9,9.6-13.1,8-21.1l-17.5-87c-3.1-15.3-20.9-22.2-33.3-12.9l-47.2,35.5
	c-8,6-10.7,16.9-6.4,26l34.7,74C251.8,227.6,267.1,231.5,277.8,223.5z"/>
<path fill="#FFFFFF" d="M238,189.9l-0.3-58.9c0-8.1-6.6-14.7-14.7-14.7l-0.3,0c-8.1,0-14.6,6.6-14.5,14.7l0.3,58.9
	c0,8.1,6.6,14.7,14.7,14.7l0.3,0C231.6,204.6,238.1,198,238,189.9z"/>
<path fill="#FFFFFF" d="M217.6,185.5L174,206.3c-6,2.9-8.8,9.8-6.3,15.5l0.1,0.2c2.5,5.7,9.4,8,15.4,5.1l43.6-20.8
	c6-2.9,8.8-9.8,6.3-15.5l-0.1-0.2C230.5,184.9,223.6,182.6,217.6,185.5z"/>
<g>
	<line x1="151.7" y1="135.2" x2="171" y2="186.3"/>
	<path fill="#FFFFFF" d="M166.3,183.6l-17.8-47.2c-0.7-1.8,0.2-3.8,2-4.5c1.8-0.7,3.8,0.2,4.5,2l17.8,47.2l-0.6,8.4L166.3,183.6z"/>
</g>
</svg>
